<?xml version="1.0" encoding="utf-8"?>
<!-- Generator: Adobe Illustrator 24.0.0, SVG Export Plug-In . SVG Version: 6.00 Build 0)  -->
<svg version="1.1" id="Layer_1" xmlns="http://www.w3.org/2000/svg" xmlns:xlink="http://www.w3.org/1999/xlink" x="0px" y="0px"
	 viewBox="0 0 100 100" style="enable-background:new 0 0 100 100;" xml:space="preserve">
<style type="text/css">
	.st0{clip-path:url(#SVGID_2_);}
	.st1{fill-rule:evenodd;clip-rule:evenodd;fill:#00234F;}
</style>
<title>ico_whatsapp_blue</title>
<g>
	<g>
		<defs>
			<rect id="SVGID_1_" x="10.1" y="8.7" width="80.8" height="81.1"/>
		</defs>
		<clipPath id="SVGID_2_">
			<use xlink:href="#SVGID_1_"  style="overflow:visible;"/>
		</clipPath>
		<g class="st0">
			<path class="st1" d="M79.1,20.5C63.3,4.8,37.9,4.9,22.2,20.6C9.4,33.4,6.8,53.3,15.8,69l-5.7,20.9l21.3-5.6
				c5.9,3.2,12.5,4.9,19.2,4.9l0,0c22.2,0,40.2-18,40.2-40.2C90.8,38.3,86.6,28.1,79.1,20.5 M50.6,82.4L50.6,82.4
				c-6,0-11.9-1.6-17-4.7L32.4,77l-12.7,3.3L23.1,68l-0.8-1.3c-9.8-15.6-5.1-36.3,10.5-46.1s36.3-5.1,46.1,10.5S84,67.4,68.4,77.3
				C63.1,80.6,56.9,82.4,50.6,82.4 M69,57.4c-1-0.5-6-2.9-6.9-3.3s-1.6-0.5-2.3,0.5s-2.6,3.3-3.2,3.9s-1.2,0.8-2.2,0.3
				c-3-1.2-5.7-2.9-8.1-5c-2.2-2-4.1-4.4-5.6-7c-0.6-1-0.1-1.5,0.4-2s1-1.2,1.5-1.8c0.4-0.5,0.7-1.1,1-1.7c0.3-0.6,0.2-1.2-0.1-1.8
				C43.2,39,41.2,34,40.4,32s-1.6-1.7-2.3-1.7s-1.3,0-1.9,0c-1,0-2,0.5-2.7,1.3c-2.3,2.2-3.6,5.2-3.6,8.4c0,4.9,3.6,9.7,4.1,10.4
				s7.1,10.8,17.2,15.2c1.9,0.8,3.8,1.5,5.7,2.1c2.1,0.6,4.2,0.8,6.3,0.4c1.9-0.3,5.9-2.4,6.8-4.8s0.8-4.4,0.6-4.8S70,57.9,69,57.4"
				/>
		</g>
	</g>
</g>
</svg>
