<?xml version="1.0" encoding="utf-8"?>
<!-- Generator: Adobe Illustrator 24.0.0, SVG Export Plug-In . SVG Version: 6.00 Build 0)  -->
<svg version="1.1" id="Layer_1" xmlns="http://www.w3.org/2000/svg" xmlns:xlink="http://www.w3.org/1999/xlink" x="0px" y="0px"
	 viewBox="0 0 100 100" style="enable-background:new 0 0 100 100;" xml:space="preserve">
<style type="text/css">
	.st0{display:none;}
	.st1{display:inline;fill:#FFFFFF;}
	.st2{display:inline;fill:#F17E23;}
	.st3{display:inline;fill:#CD5C0E;}
	.st4{display:inline;fill:#FFB31A;}
	.st5{display:inline;fill:#FF0000;}
	.st6{display:inline;}
	.st7{clip-path:url(#SVGID_2_);fill:#F38022;}
	.st8{clip-path:url(#SVGID_4_);fill:#CAE1F9;}
	.st9{clip-path:url(#SVGID_6_);fill:#9FC6E2;}
	.st10{clip-path:url(#SVGID_8_);fill:#9FC6E2;}
	.st11{clip-path:url(#SVGID_10_);fill:#E54728;}
	.st12{clip-path:url(#SVGID_12_);fill:#E50027;}
	.st13{clip-path:url(#SVGID_14_);fill:#003FA1;}
	.st14{clip-path:url(#SVGID_16_);fill:#01204F;}
	.st15{fill:#FFFFFF;}
	.st16{fill:#518BB3;}
	.st17{fill:#F17E23;}
	.st18{fill:#FFB31A;}
	.st19{fill:#FF401A;}
	.st20{fill:#CCE5FF;}
	.st21{fill:#CD5C0E;}
</style>
<g class="st0">
	<path class="st1" d="M58.2,39.1c-0.9,0-1.6-0.7-1.6-1.6v-6.9c0-0.3-0.2-0.5-0.5-0.5H43c-0.3,0-0.5,0.2-0.5,0.5v6.9
		c0,0.9-0.7,1.6-1.6,1.6c-0.9,0-1.6-0.7-1.6-1.6v-6.9c0-2,1.6-3.7,3.7-3.7h13.1c2,0,3.7,1.6,3.7,3.7v6.9
		C59.8,38.3,59.1,39.1,58.2,39.1L58.2,39.1z"/>
	<path class="st2" d="M72.7,73.1H26.4c-1.7,0-3.1-1.4-3.1-3.1V38.1c0-1.7,1.4-3.1,3.1-3.1h46.3c1.7,0,3.1,1.4,3.1,3.1V70
		C75.9,71.7,74.5,73.1,72.7,73.1L72.7,73.1z"/>
	<path class="st3" d="M72.7,34.9H69c1.7,0,3.1,1.4,3.1,3.1v32c0,1.7-1.4,3.1-3.1,3.1h3.7c1.7,0,3.1-1.4,3.1-3.1V38.1
		C75.9,36.3,74.5,34.9,72.7,34.9L72.7,34.9z"/>
	<path class="st4" d="M68.7,73.1h4c1.7,0,3.1-1.4,3.1-3.1v-4.1C72.3,66.7,69.5,69.5,68.7,73.1L68.7,73.1z"/>
	<path class="st4" d="M30.4,73.1h-4c-1.7,0-3.1-1.4-3.1-3.1v-4.1C26.9,66.7,29.6,69.5,30.4,73.1L30.4,73.1z"/>
	<path class="st4" d="M68.7,34.9h4c1.7,0,3.1,1.4,3.1,3.1v4.1C72.3,41.3,69.5,38.5,68.7,34.9L68.7,34.9z"/>
	<path class="st2" d="M75.9,70v-4.1c-1.4,0.3-2.6,0.9-3.7,1.8V70c0,1.7-1.4,3.1-3.1,3.1h3.7C74.5,73.1,75.9,71.7,75.9,70L75.9,70z"
		/>
	<path class="st2" d="M72.7,34.9H69c1.7,0,3.1,1.4,3.1,3.1v2.4c1.1,0.8,2.3,1.4,3.7,1.8v-4.1C75.9,36.3,74.5,34.9,72.7,34.9
		L72.7,34.9z"/>
	<path class="st4" d="M30.4,34.9h-4c-1.7,0-3.1,1.4-3.1,3.1v4.1C26.9,41.3,29.6,38.5,30.4,34.9L30.4,34.9z"/>
	<rect x="36.1" y="34.9" class="st5" width="4.1" height="38.2"/>
	<rect x="59" y="34.9" class="st5" width="4.1" height="38.2"/>
</g>
<g class="st0">
	<g class="st6">
		<defs>
			<rect id="SVGID_1_" x="27.1" y="24.1" width="43.9" height="56.7"/>
		</defs>
		<clipPath id="SVGID_2_">
			<use xlink:href="#SVGID_1_"  style="overflow:visible;"/>
		</clipPath>
		<path class="st7" d="M70.4,49c0.9,1.6-0.2,3.6-2,3.6c-27,0-31.5,0-31.9,0V24.1h31.9c1.8,0,3,2,2,3.6L64,38.4L70.4,49z"/>
	</g>
	<g class="st6">
		<defs>
			<rect id="SVGID_3_" x="27.1" y="24.1" width="43.9" height="56.7"/>
		</defs>
		<clipPath id="SVGID_4_">
			<use xlink:href="#SVGID_3_"  style="overflow:visible;"/>
		</clipPath>
		<path class="st8" d="M38.8,63c-1.5-0.4-3.1-0.4-4.7,0V26.4c0-1.3,1.1-2.4,2.4-2.4c1.3,0,2.4,1.1,2.4,2.4L38.8,63z"/>
	</g>
	<g class="st6">
		<defs>
			<rect id="SVGID_5_" x="27.1" y="24.1" width="43.9" height="56.7"/>
		</defs>
		<clipPath id="SVGID_6_">
			<use xlink:href="#SVGID_5_"  style="overflow:visible;"/>
		</clipPath>
		<path class="st9" d="M38.8,63c-0.8-0.2-1.5-0.3-2.3-0.3V24.1c1.3,0,2.3,1.1,2.3,2.4V63"/>
	</g>
	<g class="st6">
		<defs>
			<rect id="SVGID_7_" x="27.1" y="24.1" width="43.9" height="56.7"/>
		</defs>
		<clipPath id="SVGID_8_">
			<use xlink:href="#SVGID_7_"  style="overflow:visible;"/>
		</clipPath>
		<path class="st10" d="M71,79.6"/>
	</g>
	<g class="st6">
		<defs>
			<rect id="SVGID_9_" x="27.1" y="24.1" width="43.9" height="56.7"/>
		</defs>
		<clipPath id="SVGID_10_">
			<use xlink:href="#SVGID_9_"  style="overflow:visible;"/>
		</clipPath>
		<path class="st11" d="M45.9,71.3c0,5.2-4.2,9.4-9.4,9.4s-9.4-4.2-9.4-9.4c0-5.2,4.2-9.4,9.4-9.4S45.9,66.1,45.9,71.3"/>
	</g>
	<g class="st6">
		<defs>
			<rect id="SVGID_11_" x="27.1" y="24.1" width="43.9" height="56.7"/>
		</defs>
		<clipPath id="SVGID_12_">
			<use xlink:href="#SVGID_11_"  style="overflow:visible;"/>
		</clipPath>
		<path class="st12" d="M45.6,73.7c-1,4.1-4.7,7.1-9.1,7.1V61.9C42.6,61.9,47.1,67.7,45.6,73.7"/>
	</g>
	<g class="st6">
		<defs>
			<rect id="SVGID_13_" x="27.1" y="24.1" width="43.9" height="56.7"/>
		</defs>
		<clipPath id="SVGID_14_">
			<use xlink:href="#SVGID_13_"  style="overflow:visible;"/>
		</clipPath>
		<path class="st13" d="M36.5,76.1c-2.6,0-4.7-2.1-4.7-4.7s2.1-4.7,4.7-4.7c2.6,0,4.7,2.1,4.7,4.7C41.2,73.9,39.1,76.1,36.5,76.1"/>
	</g>
	<g class="st6">
		<defs>
			<rect id="SVGID_15_" x="27.1" y="24.1" width="43.9" height="56.7"/>
		</defs>
		<clipPath id="SVGID_16_">
			<use xlink:href="#SVGID_15_"  style="overflow:visible;"/>
		</clipPath>
		<path class="st14" d="M41.2,71.3c0,2.6-2.1,4.7-4.7,4.7v-9.4C39.1,66.6,41.2,68.7,41.2,71.3"/>
	</g>
</g>
<g>
	<rect x="42.2" y="18.9" class="st15" width="2.6" height="14.3"/>
	<rect x="55.2" y="18.9" class="st15" width="2.6" height="14.3"/>
	<path class="st16" d="M33.1,78.5v5.2c0,0.7,0.6,1.3,1.3,1.3H37c0.7,0,1.3-0.6,1.3-1.3v-5.2H33.1z"/>
	<path class="st16" d="M61.7,78.5v5.2c0,0.7,0.6,1.3,1.3,1.3h2.6c0.7,0,1.3-0.6,1.3-1.3v-5.2H61.7z"/>
</g>
<path class="st17" d="M64.3,79.8H35.7c-2.9,0-5.2-2.3-5.2-5.2V37c0-2.9,2.3-5.2,5.2-5.2h28.5c2.9,0,5.2,2.3,5.2,5.2v37.6
	C69.4,77.5,67.1,79.8,64.3,79.8z"/>
<path class="st18" d="M63,74.6H37c-0.7,0-1.3-0.6-1.3-1.3v-35c0-0.7,0.6-1.3,1.3-1.3H63c0.7,0,1.3,0.6,1.3,1.3v35
	C64.3,74,63.7,74.6,63,74.6z"/>
<path class="st19" d="M56.5,65.6h-13c-1.4,0-2.6-1.2-2.6-2.6v-5.2h18.1V63C59.1,64.4,57.9,65.6,56.5,65.6z"/>
<path class="st15" d="M59.1,59.1H40.9c-0.7,0-1.3-0.6-1.3-1.3c0-0.7,0.6-1.3,1.3-1.3h18.1c0.7,0,1.3,0.6,1.3,1.3
	C60.4,58.5,59.8,59.1,59.1,59.1z"/>
<path class="st20" d="M44.8,61.7c-0.7,0-1.3-0.6-1.3-1.3v-2.6c0-0.7,0.6-1.3,1.3-1.3s1.3,0.6,1.3,1.3v2.6
	C46.1,61.1,45.5,61.7,44.8,61.7z"/>
<g>
	<path class="st20" d="M35.7,83.7V85H37c0.7,0,1.3-0.6,1.3-1.3v-1.3H37C36.3,82.4,35.7,83,35.7,83.7z"/>
	<path class="st20" d="M64.3,83.7V85h1.3c0.7,0,1.3-0.6,1.3-1.3v-1.3h-1.3C64.8,82.4,64.3,83,64.3,83.7z"/>
</g>
<path class="st21" d="M37,77.2c-2.1,0-3.9-1.7-3.9-3.9V32.6c-1.5,0.9-2.6,2.6-2.6,4.5v37.6c0,2.9,2.3,5.2,5.2,5.2h28.5
	c1.9,0,3.6-1,4.5-2.6L37,77.2L37,77.2z"/>
<rect x="30.6" y="47.4" class="st20" width="38.9" height="5.2"/>
<rect x="30.6" y="47.4" class="st16" width="2.6" height="5.2"/>
<g>
	<rect x="42.2" y="18.9" class="st16" width="2.6" height="3.9"/>
	<rect x="55.2" y="18.9" class="st16" width="2.6" height="3.9"/>
</g>
<path class="st15" d="M57.8,20.2H42.2c-0.7,0-1.3-0.6-1.3-1.3v-2.6c0-0.7,0.6-1.3,1.3-1.3h15.6c0.7,0,1.3,0.6,1.3,1.3v2.6
	C59.1,19.6,58.5,20.2,57.8,20.2z"/>
<path class="st20" d="M57.8,17.6H42.2c-0.7,0-1.3-0.6-1.3-1.3v2.6c0,0.7,0.6,1.3,1.3,1.3h15.6c0.7,0,1.3-0.6,1.3-1.3v-2.6
	C59.1,17,58.5,17.6,57.8,17.6z"/>
</svg>
