<?xml version="1.0" encoding="utf-8"?>
<!-- Generator: Adobe Illustrator 24.0.0, SVG Export Plug-In . SVG Version: 6.00 Build 0)  -->
<svg version="1.1" id="Layer_1" xmlns="http://www.w3.org/2000/svg" xmlns:xlink="http://www.w3.org/1999/xlink" x="0px" y="0px"
	 viewBox="0 0 100 100" style="enable-background:new 0 0 100 100;" xml:space="preserve">
<style type="text/css">
	.st0{display:none;}
	.st1{display:inline;fill:#FFFFFF;}
	.st2{display:inline;fill:#F17E23;}
	.st3{display:inline;fill:#CD5C0E;}
	.st4{display:inline;fill:#FFB31A;}
	.st5{display:inline;fill:#FF0000;}
	.st6{display:inline;}
	.st7{clip-path:url(#SVGID_2_);fill:#F38022;}
	.st8{clip-path:url(#SVGID_4_);fill:#CAE1F9;}
	.st9{clip-path:url(#SVGID_6_);fill:#9FC6E2;}
	.st10{clip-path:url(#SVGID_8_);fill:#9FC6E2;}
	.st11{clip-path:url(#SVGID_10_);fill:#E54728;}
	.st12{clip-path:url(#SVGID_12_);fill:#E50027;}
	.st13{clip-path:url(#SVGID_14_);fill:#003FA1;}
	.st14{clip-path:url(#SVGID_16_);fill:#01204F;}
	.st15{fill:#FFFFFF;}
	.st16{fill:#F38022;}
	.st17{fill:#E50027;}
	.st18{fill:#D2D2D2;}
</style>
<g class="st0">
	<path class="st1" d="M58.2,39.1c-0.9,0-1.6-0.7-1.6-1.6v-6.9c0-0.3-0.2-0.5-0.5-0.5H43c-0.3,0-0.5,0.2-0.5,0.5v6.9
		c0,0.9-0.7,1.6-1.6,1.6c-0.9,0-1.6-0.7-1.6-1.6v-6.9c0-2,1.6-3.7,3.7-3.7h13.1c2,0,3.7,1.6,3.7,3.7v6.9
		C59.8,38.3,59.1,39.1,58.2,39.1L58.2,39.1z"/>
	<path class="st2" d="M72.7,73.1H26.4c-1.7,0-3.1-1.4-3.1-3.1V38.1c0-1.7,1.4-3.1,3.1-3.1h46.3c1.7,0,3.1,1.4,3.1,3.1V70
		C75.9,71.7,74.5,73.1,72.7,73.1L72.7,73.1z"/>
	<path class="st3" d="M72.7,34.9H69c1.7,0,3.1,1.4,3.1,3.1v32c0,1.7-1.4,3.1-3.1,3.1h3.7c1.7,0,3.1-1.4,3.1-3.1V38.1
		C75.9,36.3,74.5,34.9,72.7,34.9L72.7,34.9z"/>
	<path class="st4" d="M68.7,73.1h4c1.7,0,3.1-1.4,3.1-3.1v-4.1C72.3,66.7,69.5,69.5,68.7,73.1L68.7,73.1z"/>
	<path class="st4" d="M30.4,73.1h-4c-1.7,0-3.1-1.4-3.1-3.1v-4.1C26.9,66.7,29.6,69.5,30.4,73.1L30.4,73.1z"/>
	<path class="st4" d="M68.7,34.9h4c1.7,0,3.1,1.4,3.1,3.1v4.1C72.3,41.3,69.5,38.5,68.7,34.9L68.7,34.9z"/>
	<path class="st2" d="M75.9,70v-4.1c-1.4,0.3-2.6,0.9-3.7,1.8V70c0,1.7-1.4,3.1-3.1,3.1h3.7C74.5,73.1,75.9,71.7,75.9,70L75.9,70z"
		/>
	<path class="st2" d="M72.7,34.9H69c1.7,0,3.1,1.4,3.1,3.1v2.4c1.1,0.8,2.3,1.4,3.7,1.8v-4.1C75.9,36.3,74.5,34.9,72.7,34.9
		L72.7,34.9z"/>
	<path class="st4" d="M30.4,34.9h-4c-1.7,0-3.1,1.4-3.1,3.1v4.1C26.9,41.3,29.6,38.5,30.4,34.9L30.4,34.9z"/>
	<rect x="36.1" y="34.9" class="st5" width="4.1" height="38.2"/>
	<rect x="59" y="34.9" class="st5" width="4.1" height="38.2"/>
</g>
<g class="st0">
	<g class="st6">
		<defs>
			<rect id="SVGID_1_" x="27.1" y="24.1" width="43.9" height="56.7"/>
		</defs>
		<clipPath id="SVGID_2_">
			<use xlink:href="#SVGID_1_"  style="overflow:visible;"/>
		</clipPath>
		<path class="st7" d="M70.4,49c0.9,1.6-0.2,3.6-2,3.6c-27,0-31.5,0-31.9,0V24.1h31.9c1.8,0,3,2,2,3.6L64,38.4L70.4,49z"/>
	</g>
	<g class="st6">
		<defs>
			<rect id="SVGID_3_" x="27.1" y="24.1" width="43.9" height="56.7"/>
		</defs>
		<clipPath id="SVGID_4_">
			<use xlink:href="#SVGID_3_"  style="overflow:visible;"/>
		</clipPath>
		<path class="st8" d="M38.8,63c-1.5-0.4-3.1-0.4-4.7,0V26.4c0-1.3,1.1-2.4,2.4-2.4c1.3,0,2.4,1.1,2.4,2.4L38.8,63z"/>
	</g>
	<g class="st6">
		<defs>
			<rect id="SVGID_5_" x="27.1" y="24.1" width="43.9" height="56.7"/>
		</defs>
		<clipPath id="SVGID_6_">
			<use xlink:href="#SVGID_5_"  style="overflow:visible;"/>
		</clipPath>
		<path class="st9" d="M38.8,63c-0.8-0.2-1.5-0.3-2.3-0.3V24.1c1.3,0,2.3,1.1,2.3,2.4V63"/>
	</g>
	<g class="st6">
		<defs>
			<rect id="SVGID_7_" x="27.1" y="24.1" width="43.9" height="56.7"/>
		</defs>
		<clipPath id="SVGID_8_">
			<use xlink:href="#SVGID_7_"  style="overflow:visible;"/>
		</clipPath>
		<path class="st10" d="M71,79.6"/>
	</g>
	<g class="st6">
		<defs>
			<rect id="SVGID_9_" x="27.1" y="24.1" width="43.9" height="56.7"/>
		</defs>
		<clipPath id="SVGID_10_">
			<use xlink:href="#SVGID_9_"  style="overflow:visible;"/>
		</clipPath>
		<path class="st11" d="M45.9,71.3c0,5.2-4.2,9.4-9.4,9.4s-9.4-4.2-9.4-9.4c0-5.2,4.2-9.4,9.4-9.4S45.9,66.1,45.9,71.3"/>
	</g>
	<g class="st6">
		<defs>
			<rect id="SVGID_11_" x="27.1" y="24.1" width="43.9" height="56.7"/>
		</defs>
		<clipPath id="SVGID_12_">
			<use xlink:href="#SVGID_11_"  style="overflow:visible;"/>
		</clipPath>
		<path class="st12" d="M45.6,73.7c-1,4.1-4.7,7.1-9.1,7.1V61.9C42.6,61.9,47.1,67.7,45.6,73.7"/>
	</g>
	<g class="st6">
		<defs>
			<rect id="SVGID_13_" x="27.1" y="24.1" width="43.9" height="56.7"/>
		</defs>
		<clipPath id="SVGID_14_">
			<use xlink:href="#SVGID_13_"  style="overflow:visible;"/>
		</clipPath>
		<path class="st13" d="M36.5,76.1c-2.6,0-4.7-2.1-4.7-4.7s2.1-4.7,4.7-4.7c2.6,0,4.7,2.1,4.7,4.7C41.2,73.9,39.1,76.1,36.5,76.1"/>
	</g>
	<g class="st6">
		<defs>
			<rect id="SVGID_15_" x="27.1" y="24.1" width="43.9" height="56.7"/>
		</defs>
		<clipPath id="SVGID_16_">
			<use xlink:href="#SVGID_15_"  style="overflow:visible;"/>
		</clipPath>
		<path class="st14" d="M41.2,71.3c0,2.6-2.1,4.7-4.7,4.7v-9.4C39.1,66.6,41.2,68.7,41.2,71.3"/>
	</g>
</g>
<g>
	<path class="st15" d="M66.4,26.1H69c1.4,0,2.6,1.2,2.6,2.6v34.2c0,1.4-1.2,2.6-2.6,2.6h-2.6V26.1z M66.4,26.1"/>
	<path class="st16" d="M66.4,65.5c-10.9-6.5-23.4-10-36.1-10h-2c-2.9,0-5.2-2.3-5.2-5.2v-9c0-2.9,2.3-5.2,5.2-5.2h2
		c12.7,0,25.2-3.5,36.1-10V65.5z M66.4,65.5"/>
	<path class="st17" d="M71.6,41.1h2.1c1.7,0,3.1,1.4,3.1,3.1v3.1c0,1.7-1.4,3.1-3.1,3.1h-2.1V41.1z M71.6,41.1"/>
	<path class="st15" d="M30.8,55.5l-3.7,21.3c-0.1,0.6,0.1,1.2,0.5,1.7c0.4,0.5,1,0.7,1.6,0.7H34c1,0,1.9-0.7,2-1.7l3.7-21.4
		C36.8,55.7,33.8,55.5,30.8,55.5L30.8,55.5z M30.8,55.5"/>
	<g>
		<path class="st17" d="M38.8,61.2l-1.6,9.2h2.6c1,0,1.9-0.7,2-1.7l0.9-5c0.1-0.6-0.1-1.2-0.5-1.7c-0.4-0.5-1-0.7-1.6-0.7H38.8z
			 M38.8,61.2"/>
		<path class="st18" d="M87.9,46.7h-5.1c-1.2,0-1.2-1.8,0-1.8h5.1C89.1,44.9,89.1,46.7,87.9,46.7L87.9,46.7z M87.9,46.7"/>
	</g>
	<path class="st18" d="M80.2,40.7c-0.8,0-1.2-1-0.6-1.6l3.6-3.6c0.9-0.9,2.1,0.4,1.3,1.3l-3.6,3.6C80.7,40.6,80.5,40.7,80.2,40.7
		L80.2,40.7z M80.2,40.7"/>
	<path class="st18" d="M80.2,40.7c-0.8,0-1.2-1-0.6-1.6l3.6-3.6c0.9-0.9,2.1,0.4,1.3,1.3l-3.6,3.6C80.7,40.6,80.5,40.7,80.2,40.7
		L80.2,40.7z M80.2,40.7"/>
	<path class="st18" d="M83.9,56.3c-0.2,0-0.5-0.1-0.6-0.3l-3.6-3.6c-0.9-0.9,0.4-2.1,1.3-1.3l3.6,3.6C85.1,55.3,84.7,56.3,83.9,56.3
		L83.9,56.3z M83.9,56.3"/>
	<path class="st18" d="M83.9,56.3c-0.2,0-0.5-0.1-0.6-0.3l-3.6-3.6c-0.9-0.9,0.4-2.1,1.3-1.3l3.6,3.6C85.1,55.3,84.7,56.3,83.9,56.3
		L83.9,56.3z M83.9,56.3"/>
</g>
</svg>
