<?xml version="1.0" encoding="utf-8"?>
<!-- Generator: Adobe Illustrator 24.0.0, SVG Export Plug-In . SVG Version: 6.00 Build 0)  -->
<svg version="1.1" id="Layer_1" xmlns="http://www.w3.org/2000/svg" xmlns:xlink="http://www.w3.org/1999/xlink" x="0px" y="0px"
	 viewBox="0 0 100 100" style="enable-background:new 0 0 100 100;" xml:space="preserve">
<style type="text/css">
	.st0{fill:#F38022;}
	.st1{fill:#D3701C;}
</style>
<title>ico_location</title>
<path class="st0" d="M51,25c-10.1,0-18.3,8.2-18.3,18.3c0,3.4,0.9,6.7,2.7,9.6l14.3,23.4c0.2,0.4,0.6,0.6,1,0.7
	c0.6,0.1,1.2-0.2,1.6-0.7l14.3-23.6c1.7-2.8,2.6-6.1,2.6-9.3C69.3,33.2,61.1,25,51,25z M51,52.4c-5,0-9.1-4.1-9.1-9.1
	c0-5,4.1-9.1,9.1-9.1c5,0,9.1,4.1,9.1,9.1c0,0,0,0,0,0C60.1,48.3,56.1,52.4,51,52.4C51,52.4,51,52.4,51,52.4L51,52.4z"/>
<path class="st1" d="M51,25v9.1c5,0,9.1,4.1,9.1,9.1s-4.1,9.1-9.1,9.1c0,0,0,0,0,0V77c0.6,0,1.1-0.3,1.4-0.7l14.3-23.6
	c1.7-2.8,2.6-6.1,2.6-9.3C69.3,33.2,61.1,25,51,25z"/>
</svg>
