<svg xmlns="http://www.w3.org/2000/svg" width="24.031" height="23.969" viewBox="0 0 24.031 23.969">
  <defs>
    <style>
      .cls-1 {
        fill: #021d4f;
        fill-rule: evenodd;
      }
    </style>
  </defs>
  <path class="cls-1" d="M950.284,941.109a12.15,12.15,0,0,1,.53-14.884,11.709,11.709,0,0,1,17.566-.484l2.33-2.2a0.227,0.227,0,0,1,.369.164l0.93,8.193a0.2,0.2,0,0,1-.238.225l-7.978-1.55a0.234,0.234,0,0,1-.134-0.386L965.985,928a8.481,8.481,0,0,0-12.419.059,8.837,8.837,0,0,0-.4,11.442,8.483,8.483,0,0,0,11.388,1.746,1.613,1.613,0,0,1,2.1.257,1.658,1.658,0,0,1-.267,2.477A11.72,11.72,0,0,1,950.284,941.109Z" transform="translate(-947.969 -922.031)"/>
</svg>
