<?xml version="1.0" encoding="utf-8"?>
<!-- Generator: Adobe Illustrator 24.0.0, SVG Export Plug-In . SVG Version: 6.00 Build 0)  -->
<svg version="1.1" id="Layer_1" xmlns="http://www.w3.org/2000/svg" xmlns:xlink="http://www.w3.org/1999/xlink" x="0px" y="0px"
	 viewBox="0 0 100 100" style="enable-background:new 0 0 100 100;" xml:space="preserve">
<style type="text/css">
	.st0{fill:#F38022;}
	.st1{fill:#CAE1F9;}
	.st2{fill:#9FC6E2;}
	.st3{fill:#E54728;}
	.st4{fill:#E50027;}
	.st5{fill:#003FA1;}
	.st6{fill:#01204F;}
</style>
<g>
	<path class="st0" d="M74.8,50.5c1,1.6-0.2,3.6-2,3.6c-27.3,0-31.9,0-32.3-0.1V25.4h32.3c1.8,0,3,2,2,3.6l-6.4,10.9L74.8,50.5z
		 M74.8,50.5"/>
	<path class="st1" d="M42.9,64.8c-1.5-0.4-3.2-0.5-4.8,0l0-37c0-1.3,1.1-2.4,2.4-2.4c1.3,0,2.4,1.1,2.4,2.4L42.9,64.8z M42.9,64.8"
		/>
	<path class="st2" d="M42.9,64.8c-0.8-0.2-1.6-0.3-2.4-0.3V25.4c1.3,0,2.3,1.1,2.3,2.4C42.9,27.8,42.9,64.8,42.9,64.8L42.9,64.8z
		 M42.9,64.8"/>
	<path class="st2" d="M75.5,81.6"/>
	<path class="st3" d="M50.1,73.2c0,5.3-4.3,9.5-9.5,9.5S31,78.5,31,73.2c0-5.3,4.3-9.5,9.5-9.5S50.1,67.9,50.1,73.2L50.1,73.2z
		 M50.1,73.2"/>
	<path class="st4" d="M49.8,75.6c-1.1,4.1-4.8,7.2-9.2,7.2V63.7C46.7,63.7,51.3,69.5,49.8,75.6L49.8,75.6z M49.8,75.6"/>
	<path class="st5" d="M40.5,78c-2.6,0-4.8-2.1-4.8-4.8c0-2.6,2.1-4.8,4.8-4.8c2.6,0,4.8,2.1,4.8,4.8C45.3,75.8,43.2,78,40.5,78
		L40.5,78z M40.5,78"/>
	<path class="st6" d="M45.3,73.2c0,2.6-2.1,4.8-4.8,4.8v-9.5C43.2,68.4,45.3,70.6,45.3,73.2L45.3,73.2z M45.3,73.2"/>
</g>
</svg>
