<svg xmlns="http://www.w3.org/2000/svg" width="13.04" height="19.532" viewBox="0 0 13.04 19.532">
  <defs>
    <style>
      .cls-1 {
        fill: #01204f;
        fill-rule: evenodd;
      }
    </style>
  </defs>
  <path id="Shape_1_copy_14" data-name="Shape 1 copy 14" class="cls-1" d="M1028.87,916.972a1.788,1.788,0,1,1-1.81,1.787A1.8,1.8,0,0,1,1028.87,916.972Zm-0.02-4.678a6.508,6.508,0,0,0-5.73,9.6l5.38,9.708a0.405,0.405,0,0,0,.71,0l5.38-9.712A6.5,6.5,0,0,0,1028.85,912.294Zm0,9.758a3.253,3.253,0,1,1,3.26-3.253A3.256,3.256,0,0,1,1028.85,922.052Z" transform="translate(-1022.34 -912.281)"/>
</svg>
